<svg viewBox="-6.4 -6.4 76.80 76.80" id="duotone_outline" xmlns="http://www.w3.org/2000/svg"
    fill="#008000">
    <g id="SVGRepo_bgCarrier" stroke-width="0">
        <path transform="translate(-6.4, -6.4), scale(2.4)"
            d="M16,29.003325997718743C19.148325078170952,29.27912153551221,22.25997282968214,28.35385362862193,24.86655458966172,26.56674828616204C27.718190859105984,24.611630480106275,30.693386137543637,22.095213866705535,31.086122077412842,18.660090356509524C31.471571216048265,15.288701940791059,28.557959437553944,12.666680314982141,26.786652754787927,9.772323128368175C25.080393596265022,6.9842551411888865,24.099851432386206,3.3026591969722094,21.019054099044524,2.2102621958540087C17.944892432897866,1.1202180865881248,14.915230727467133,3.494614525632045,11.79904827025488,4.457979982306444C8.434412175855268,5.498154693553676,3.9517853004897567,4.977394393218281,2.195027965223776,8.029695679566682C0.4382974404646991,11.081950383644973,2.7383026149919503,14.81454641722319,3.931214118796877,18.12805257524949C4.893982805621665,20.80229954358999,6.2361952135106025,23.217010248664238,8.347677531940079,25.119682792999797C10.538748212534056,27.094073007058334,13.061844009351077,28.745941422923536,16,29.003325997718743"
            fill="#00b300" strokewidth="0"></path>
    </g>
    <g id="SVGRepo_tracerCarrier" stroke-linecap="round" stroke-linejoin="round"></g>
    <g id="SVGRepo_iconCarrier">
        <path
            d="M32,30A14,14,0,1,1,46,16,14.015,14.015,0,0,1,32,30ZM32,4A12,12,0,1,0,44,16,12.013,12.013,0,0,0,32,4Z"
            style="fill:#ffffff"></path>
        <path
            d="M15,50A11,11,0,1,1,26,39,11.013,11.013,0,0,1,15,50Zm0-20a9,9,0,1,0,9,9A9.011,9.011,0,0,0,15,30Z"
            style="fill:#ffffff"></path>
        <path
            d="M48,47A10,10,0,1,1,58,37,10.011,10.011,0,0,1,48,47Zm0-18a8,8,0,1,0,8,8A8.009,8.009,0,0,0,48,29Z"
            style="fill:#ffffff"></path>
        <path d="M32,62a1,1,0,0,1-1-1V8a1,1,0,0,1,2,0V61A1,1,0,0,1,32,62Z" style="fill:#004d00"></path>
        <path
            d="M42,50H32a1,1,0,0,1,0-2H42a5.006,5.006,0,0,0,5-5V32a1,1,0,0,1,2,0V43A7.008,7.008,0,0,1,42,50Z"
            style="fill:#004d00"></path>
        <path
            d="M32,54H21a7.008,7.008,0,0,1-7-7V34a1,1,0,0,1,2,0V47a5.006,5.006,0,0,0,5,5H32a1,1,0,0,1,0,2Z"
            style="fill:#004d00"></path>
        <path d="M50,39H48a1,1,0,0,1,0-2h2a1,1,0,0,0,1-1V34a1,1,0,0,1,2,0v2A3,3,0,0,1,50,39Z"
            style="fill:#004d00"></path>
        <path d="M48,42H46a3,3,0,0,1-3-3V36a1,1,0,0,1,2,0v3a1,1,0,0,0,1,1h2a1,1,0,0,1,0,2Z"
            style="fill:#004d00"></path>
        <path d="M34,21H32a1,1,0,0,1,0-2h2a2,2,0,0,0,2-2V12a1,1,0,0,1,2,0v5A4,4,0,0,1,34,21Z"
            style="fill:#004d00"></path>
        <path d="M32,24H30a4,4,0,0,1-4-4V15a1,1,0,0,1,2,0v5a2,2,0,0,0,2,2h2a1,1,0,0,1,0,2Z"
            style="fill:#004d00"></path>
        <path d="M17,42H15a1,1,0,0,1,0-2h2a1,1,0,0,0,1-1V37a1,1,0,0,1,2,0v2A3,3,0,0,1,17,42Z"
            style="fill:#004d00"></path>
        <path d="M15,45H13a3,3,0,0,1-3-3V39a1,1,0,0,1,2,0v3a1,1,0,0,0,1,1h2a1,1,0,0,1,0,2Z"
            style="fill:#004d00"></path>
        <path
            d="M44.7,60.283a3.977,3.977,0,0,1-3.593-5.7l.153-.322.322-.153A3.983,3.983,0,0,1,46.9,59.42l-.153.322-.322.153A4.008,4.008,0,0,1,44.7,60.283Zm-1.913-4.5a1.976,1.976,0,0,0,2.43,2.43,1.976,1.976,0,0,0-2.43-2.43Z"
            style="fill:#ffffff"></path>
        <path
            d="M11.7,24.283a3.977,3.977,0,0,1-3.593-5.7l.153-.322.322-.153A3.983,3.983,0,0,1,13.9,23.42l-.153.322-.322.153A4.008,4.008,0,0,1,11.7,24.283Zm-1.913-4.5a1.976,1.976,0,0,0,2.43,2.43,1.976,1.976,0,0,0-2.43-2.43Z"
            style="fill:#ffffff"></path>
        <path
            d="M54.7,24.283a3.977,3.977,0,0,1-3.593-5.7l.153-.322.322-.153A3.983,3.983,0,0,1,56.9,23.42l-.153.322-.322.153A4.008,4.008,0,0,1,54.7,24.283Zm-1.913-4.5a1.976,1.976,0,0,0,2.43,2.43,1.976,1.976,0,0,0-2.43-2.43Z"
            style="fill:#ffffff"></path>
    </g>
</svg>