<svg xmlns="http://www.w3.org/2000/svg" width="200" height="200" viewBox="0 0 200 200">
  <rect width="200" height="200" rx="30" ry="30" fill="#C3DAEB" />
  <g transform="translate(0,200) scale(0.1,-0.1)" fill="#2D527C" stroke="none">
    <path
      d="M840 1826 c-219 -46 -413 -177 -537 -363 -224 -337 -181 -768 106
-1053 132 -131 273 -205 452 -236 546 -95 1045 381 969 926 -14 102 -62 257
-91 294 -25 31 -53 33 -72 5 -14 -19 -11 -32 26 -137 36 -105 41 -129 45 -237
5 -141 -9 -216 -63 -333 -89 -191 -244 -328 -450 -398 -105 -35 -273 -44 -385
-20 -149 32 -317 134 -411 250 -112 139 -169 296 -169 471 0 291 156 544 415
670 113 55 200 76 323 76 125 0 227 -26 357 -91 55 -28 106 -50 112 -50 23 0
46 46 34 68 -15 29 -173 107 -277 137 -110 33 -284 42 -384 21z" />
    <path
      d="M1121 1543 c-75 -37 -85 -99 -35 -210 91 -203 122 -408 89 -593 -38
-215 -31 -255 49 -285 85 -33 166 10 194 101 42 144 54 390 27 550 -32 183
-120 388 -184 431 -40 27 -92 29 -140 6z m109 -103 c56 -79 108 -233 131 -391
23 -161 -7 -451 -53 -506 -15 -18 -57 -16 -65 3 -3 9 2 60 13 113 14 71 19
135 18 246 -1 173 -23 275 -92 437 -29 68 -37 98 -31 111 15 27 55 21 79 -13z" />
    <path
      d="M864 1436 c-42 -19 -74 -62 -74 -102 0 -18 16 -69 35 -112 74 -169
91 -318 56 -500 -25 -129 -21 -149 39 -190 61 -41 140 -20 175 48 48 92 61
362 27 525 -20 91 -65 212 -102 273 -22 36 -75 72 -105 72 -11 -1 -34 -7 -51
-14z m98 -147 c49 -100 79 -224 85 -345 8 -162 -18 -325 -54 -339 -31 -11 -37
11 -22 87 8 44 14 130 13 213 -1 150 -19 235 -79 370 -27 62 -25 78 8 73 15
-2 30 -20 49 -59z" />
    <path
      d="M589 1335 c-14 -8 -32 -29 -40 -46 -11 -29 -10 -39 10 -93 66 -177
73 -213 67 -346 -4 -69 -9 -148 -12 -176 -7 -61 5 -88 48 -110 40 -21 102 -13
133 16 51 48 81 279 55 436 -20 130 -84 286 -129 321 -22 17 -100 15 -132 -2z
m113 -135 c16 -30 37 -93 49 -140 18 -72 21 -103 16 -210 -6 -134 -19 -198
-43 -207 -28 -10 -32 11 -18 82 29 148 13 303 -44 446 -16 41 -28 78 -25 82
12 20 40 -3 65 -53z" />
  </g>
</svg>